<svg id="mermaid-0fa41c39-0006-47a8-b8e8-93c36a66fec8" width="100%" xmlns="http://www.w3.org/2000/svg" xmlns:xlink="http://www.w3.org/1999/xlink" class="erDiagram" style="max-width: 141.047px; background-color: transparent;" viewBox="0 0 141.046875 503" role="graphics-document document" aria-roledescription="er"><style>#mermaid-0fa41c39-0006-47a8-b8e8-93c36a66fec8{font-family:"Noto Sans CJK JP","IPAexGothic",sans-serif;font-size:16px;fill:#333;}@keyframes edge-animation-frame{from{stroke-dashoffset:0;}}@keyframes dash{to{stroke-dashoffset:0;}}#mermaid-0fa41c39-0006-47a8-b8e8-93c36a66fec8 .edge-animation-slow{stroke-dasharray:9,5!important;stroke-dashoffset:900;animation:dash 50s linear infinite;stroke-linecap:round;}#mermaid-0fa41c39-0006-47a8-b8e8-93c36a66fec8 .edge-animation-fast{stroke-dasharray:9,5!important;stroke-dashoffset:900;animation:dash 20s linear infinite;stroke-linecap:round;}#mermaid-0fa41c39-0006-47a8-b8e8-93c36a66fec8 .error-icon{fill:hsl(220.5882352941, 100%, 98.3333333333%);}#mermaid-0fa41c39-0006-47a8-b8e8-93c36a66fec8 .error-text{fill:rgb(8.5000000002, 5.7500000001, 0);stroke:rgb(8.5000000002, 5.7500000001, 0);}#mermaid-0fa41c39-0006-47a8-b8e8-93c36a66fec8 .edge-thickness-normal{stroke-width:1px;}#mermaid-0fa41c39-0006-47a8-b8e8-93c36a66fec8 .edge-thickness-thick{stroke-width:3.5px;}#mermaid-0fa41c39-0006-47a8-b8e8-93c36a66fec8 .edge-pattern-solid{stroke-dasharray:0;}#mermaid-0fa41c39-0006-47a8-b8e8-93c36a66fec8 .edge-thickness-invisible{stroke-width:0;fill:none;}#mermaid-0fa41c39-0006-47a8-b8e8-93c36a66fec8 .edge-pattern-dashed{stroke-dasharray:3;}#mermaid-0fa41c39-0006-47a8-b8e8-93c36a66fec8 .edge-pattern-dotted{stroke-dasharray:2;}#mermaid-0fa41c39-0006-47a8-b8e8-93c36a66fec8 .marker{fill:#0b0b0b;stroke:#0b0b0b;}#mermaid-0fa41c39-0006-47a8-b8e8-93c36a66fec8 .marker.cross{stroke:#0b0b0b;}#mermaid-0fa41c39-0006-47a8-b8e8-93c36a66fec8 svg{font-family:"Noto Sans CJK JP","IPAexGothic",sans-serif;font-size:16px;}#mermaid-0fa41c39-0006-47a8-b8e8-93c36a66fec8 p{margin:0;}#mermaid-0fa41c39-0006-47a8-b8e8-93c36a66fec8 .entityBox{fill:#fff4dd;stroke:hsl(40.5882352941, 60%, 83.3333333333%);}#mermaid-0fa41c39-0006-47a8-b8e8-93c36a66fec8 .relationshipLabelBox{fill:hsl(220.5882352941, 100%, 98.3333333333%);opacity:0.7;background-color:hsl(220.5882352941, 100%, 98.3333333333%);}#mermaid-0fa41c39-0006-47a8-b8e8-93c36a66fec8 .relationshipLabelBox rect{opacity:0.5;}#mermaid-0fa41c39-0006-47a8-b8e8-93c36a66fec8 .labelBkg{background-color:rgba(246.4999999998, 249.2499999999, 255, 0.5);}#mermaid-0fa41c39-0006-47a8-b8e8-93c36a66fec8 .edgeLabel{background-color:hsl(-79.4117647059, 100%, 93.3333333333%);}#mermaid-0fa41c39-0006-47a8-b8e8-93c36a66fec8 .edgeLabel .label rect{fill:hsl(-79.4117647059, 100%, 93.3333333333%);}#mermaid-0fa41c39-0006-47a8-b8e8-93c36a66fec8 .edgeLabel .label text{fill:#333;}#mermaid-0fa41c39-0006-47a8-b8e8-93c36a66fec8 .edgeLabel .label{fill:hsl(40.5882352941, 60%, 83.3333333333%);font-size:14px;}#mermaid-0fa41c39-0006-47a8-b8e8-93c36a66fec8 .label{font-family:"Noto Sans CJK JP","IPAexGothic",sans-serif;color:#333;}#mermaid-0fa41c39-0006-47a8-b8e8-93c36a66fec8 .edge-pattern-dashed{stroke-dasharray:8,8;}#mermaid-0fa41c39-0006-47a8-b8e8-93c36a66fec8 .node rect,#mermaid-0fa41c39-0006-47a8-b8e8-93c36a66fec8 .node circle,#mermaid-0fa41c39-0006-47a8-b8e8-93c36a66fec8 .node ellipse,#mermaid-0fa41c39-0006-47a8-b8e8-93c36a66fec8 .node polygon{fill:#fff4dd;stroke:hsl(40.5882352941, 60%, 83.3333333333%);stroke-width:1px;}#mermaid-0fa41c39-0006-47a8-b8e8-93c36a66fec8 .relationshipLine{stroke:#0b0b0b;stroke-width:1px;fill:none;}#mermaid-0fa41c39-0006-47a8-b8e8-93c36a66fec8 .marker{fill:none!important;stroke:#0b0b0b!important;stroke-width:1;}#mermaid-0fa41c39-0006-47a8-b8e8-93c36a66fec8 [data-look=neo].labelBkg{background-color:rgba(246.4999999998, 249.2499999999, 255, 0.5);}#mermaid-0fa41c39-0006-47a8-b8e8-93c36a66fec8 .node .neo-node{stroke:hsl(40.5882352941, 60%, 83.3333333333%);}#mermaid-0fa41c39-0006-47a8-b8e8-93c36a66fec8 [data-look="neo"].node rect,#mermaid-0fa41c39-0006-47a8-b8e8-93c36a66fec8 [data-look="neo"].cluster rect,#mermaid-0fa41c39-0006-47a8-b8e8-93c36a66fec8 [data-look="neo"].node polygon{stroke:url(#mermaid-0fa41c39-0006-47a8-b8e8-93c36a66fec8-gradient);filter:drop-shadow( 1px 2px 2px rgba(185,185,185,1));}#mermaid-0fa41c39-0006-47a8-b8e8-93c36a66fec8 [data-look="neo"].node path{stroke:url(#mermaid-0fa41c39-0006-47a8-b8e8-93c36a66fec8-gradient);stroke-width:1px;}#mermaid-0fa41c39-0006-47a8-b8e8-93c36a66fec8 [data-look="neo"].node .outer-path{filter:drop-shadow( 1px 2px 2px rgba(185,185,185,1));}#mermaid-0fa41c39-0006-47a8-b8e8-93c36a66fec8 [data-look="neo"].node .neo-line path{stroke:hsl(40.5882352941, 60%, 83.3333333333%);filter:none;}#mermaid-0fa41c39-0006-47a8-b8e8-93c36a66fec8 [data-look="neo"].node circle{stroke:url(#mermaid-0fa41c39-0006-47a8-b8e8-93c36a66fec8-gradient);filter:drop-shadow( 1px 2px 2px rgba(185,185,185,1));}#mermaid-0fa41c39-0006-47a8-b8e8-93c36a66fec8 [data-look="neo"].node circle .state-start{fill:#000000;}#mermaid-0fa41c39-0006-47a8-b8e8-93c36a66fec8 [data-look="neo"].icon-shape .icon{fill:url(#mermaid-0fa41c39-0006-47a8-b8e8-93c36a66fec8-gradient);filter:drop-shadow( 1px 2px 2px rgba(185,185,185,1));}#mermaid-0fa41c39-0006-47a8-b8e8-93c36a66fec8 [data-look="neo"].icon-shape .icon-neo path{stroke:url(#mermaid-0fa41c39-0006-47a8-b8e8-93c36a66fec8-gradient);filter:drop-shadow( 1px 2px 2px rgba(185,185,185,1));}#mermaid-0fa41c39-0006-47a8-b8e8-93c36a66fec8 .label foreignobject{overflow:visible;}#mermaid-0fa41c39-0006-47a8-b8e8-93c36a66fec8 :root{--mermaid-font-family:"trebuchet ms",verdana,arial,sans-serif;}</style><g><defs><marker id="mermaid-0fa41c39-0006-47a8-b8e8-93c36a66fec8_er-onlyOneStart" class="marker onlyOne er" refX="0" refY="9" markerWidth="18" markerHeight="18" orient="auto"><path d="M9,0 L9,18 M15,0 L15,18"/></marker></defs><defs><marker id="mermaid-0fa41c39-0006-47a8-b8e8-93c36a66fec8_er-onlyOneEnd" class="marker onlyOne er" refX="18" refY="9" markerWidth="18" markerHeight="18" orient="auto"><path d="M3,0 L3,18 M9,0 L9,18"/></marker></defs><defs><marker id="mermaid-0fa41c39-0006-47a8-b8e8-93c36a66fec8_er-zeroOrOneStart" class="marker zeroOrOne er" refX="0" refY="9" markerWidth="30" markerHeight="18" orient="auto"><circle fill="white" cx="21" cy="9" r="6"/><path d="M9,0 L9,18"/></marker></defs><defs><marker id="mermaid-0fa41c39-0006-47a8-b8e8-93c36a66fec8_er-zeroOrOneEnd" class="marker zeroOrOne er" refX="30" refY="9" markerWidth="30" markerHeight="18" orient="auto"><circle fill="white" cx="9" cy="9" r="6"/><path d="M21,0 L21,18"/></marker></defs><defs><marker id="mermaid-0fa41c39-0006-47a8-b8e8-93c36a66fec8_er-oneOrMoreStart" class="marker oneOrMore er" refX="18" refY="18" markerWidth="45" markerHeight="36" orient="auto"><path d="M0,18 Q 18,0 36,18 Q 18,36 0,18 M42,9 L42,27"/></marker></defs><defs><marker id="mermaid-0fa41c39-0006-47a8-b8e8-93c36a66fec8_er-oneOrMoreEnd" class="marker oneOrMore er" refX="27" refY="18" markerWidth="45" markerHeight="36" orient="auto"><path d="M3,9 L3,27 M9,18 Q27,0 45,18 Q27,36 9,18"/></marker></defs><defs><marker id="mermaid-0fa41c39-0006-47a8-b8e8-93c36a66fec8_er-zeroOrMoreStart" class="marker zeroOrMore er" refX="18" refY="18" markerWidth="57" markerHeight="36" orient="auto"><circle fill="white" cx="48" cy="18" r="6"/><path d="M0,18 Q18,0 36,18 Q18,36 0,18"/></marker></defs><defs><marker id="mermaid-0fa41c39-0006-47a8-b8e8-93c36a66fec8_er-zeroOrMoreEnd" class="marker zeroOrMore er" refX="39" refY="18" markerWidth="57" markerHeight="36" orient="auto"><circle fill="white" cx="9" cy="18" r="6"/><path d="M21,18 Q39,0 57,18 Q39,36 21,18"/></marker></defs><g class="root"><g class="clusters"/><g class="edgePaths"><path d="M70.523,125L70.523,133.417C70.523,141.833,70.523,158.667,70.523,175.5C70.523,192.333,70.523,209.167,70.523,217.583L70.523,226" id="mermaid-0fa41c39-0006-47a8-b8e8-93c36a66fec8-id_entity-CUSTOMER-0_entity-ORDER-1_0" class="edge-thickness-normal edge-pattern-solid relationshipLine" style="undefined;;;undefined" data-edge="true" data-et="edge" data-id="id_entity-CUSTOMER-0_entity-ORDER-1_0" data-points="W3sieCI6NzAuNTIzNDM3NSwieSI6MTI1fSx7IngiOjcwLjUyMzQzNzUsInkiOjE3NS41fSx7IngiOjcwLjUyMzQzNzUsInkiOjIyNn1d" data-look="classic" marker-start="url(#mermaid-0fa41c39-0006-47a8-b8e8-93c36a66fec8_er-onlyOneStart)" marker-end="url(#mermaid-0fa41c39-0006-47a8-b8e8-93c36a66fec8_er-zeroOrMoreEnd)"/><path d="M70.523,310L70.523,318.417C70.523,326.833,70.523,343.667,70.523,360.5C70.523,377.333,70.523,394.167,70.523,402.583L70.523,411" id="mermaid-0fa41c39-0006-47a8-b8e8-93c36a66fec8-id_entity-ORDER-1_entity-LINE-ITEM-2_1" class="edge-thickness-normal edge-pattern-solid relationshipLine" style="undefined;;;undefined" data-edge="true" data-et="edge" data-id="id_entity-ORDER-1_entity-LINE-ITEM-2_1" data-points="W3sieCI6NzAuNTIzNDM3NSwieSI6MzEwfSx7IngiOjcwLjUyMzQzNzUsInkiOjM2MC41fSx7IngiOjcwLjUyMzQzNzUsInkiOjQxMX1d" data-look="classic" marker-start="url(#mermaid-0fa41c39-0006-47a8-b8e8-93c36a66fec8_er-onlyOneStart)" marker-end="url(#mermaid-0fa41c39-0006-47a8-b8e8-93c36a66fec8_er-oneOrMoreEnd)"/></g><g class="edgeLabels"><g class="edgeLabel" transform="translate(70.5234375, 175.5)"><g class="label" data-id="id_entity-CUSTOMER-0_entity-ORDER-1_0" transform="translate(-20.8359375, -10.5)"><foreignObject style="overflow:visible" width="41.671875" height="21"><div xmlns="http://www.w3.org/1999/xhtml" class="labelBkg" style="display: table-cell; white-space: nowrap; line-height: 1.5; max-width: 200px; text-align: center;"><span class="edgeLabel"><p>places</p></span></div></foreignObject></g></g><g class="edgeLabel" transform="translate(70.5234375, 360.5)"><g class="label" data-id="id_entity-ORDER-1_entity-LINE-ITEM-2_1" transform="translate(-27.8125, -10.5)"><foreignObject style="overflow:visible" width="55.625" height="21"><div xmlns="http://www.w3.org/1999/xhtml" class="labelBkg" style="display: table-cell; white-space: nowrap; line-height: 1.5; max-width: 200px; text-align: center;"><span class="edgeLabel"><p>contains</p></span></div></foreignObject></g></g></g><g class="nodes"><g class="node default" id="mermaid-0fa41c39-0006-47a8-b8e8-93c36a66fec8-entity-CUSTOMER-0" data-look="classic" transform="translate(70.5234375, 66.5)"><g class="outer-path" style=""><path d="M-62.5234375 -58.5 L62.5234375 -58.5 L62.5234375 58.5 L-62.5234375 58.5" stroke="none" stroke-width="0" fill="#fff4dd"/><path d="M-62.5234375 -58.5 C-14.120277930116302 -58.5, 34.282881639767396 -58.5, 62.5234375 -58.5 M-62.5234375 -58.5 C-16.963273588507803 -58.5, 28.596890322984393 -58.5, 62.5234375 -58.5 M62.5234375 -58.5 C62.5234375 -16.870510562094893, 62.5234375 24.758978875810215, 62.5234375 58.5 M62.5234375 -58.5 C62.5234375 -33.2883014680234, 62.5234375 -8.076602936046797, 62.5234375 58.5 M62.5234375 58.5 C30.551040470176826 58.5, -1.4213565596463482 58.5, -62.5234375 58.5 M62.5234375 58.5 C15.307565095903946 58.5, -31.908307308192107 58.5, -62.5234375 58.5 M-62.5234375 58.5 C-62.5234375 19.214164954983303, -62.5234375 -20.071670090033393, -62.5234375 -58.5 M-62.5234375 58.5 C-62.5234375 14.46590908012358, -62.5234375 -29.56818183975284, -62.5234375 -58.5" stroke="hsl(40.5882352941, 60%, 83.3333333333%)" stroke-width="1.3" fill="none" stroke-dasharray="0 0"/></g><g style="" class="row-rect-odd"><path d="M-62.5234375 -19.5 L62.5234375 -19.5 L62.5234375 19.5 L-62.5234375 19.5" stroke="none" stroke-width="0" fill="hsl(40.5882352941, 100%, 100%)"/><path d="M-62.5234375 -19.5 C-24.496771664716185 -19.5, 13.52989417056763 -19.5, 62.5234375 -19.5 M-62.5234375 -19.5 C-15.868374188175174 -19.5, 30.78668912364965 -19.5, 62.5234375 -19.5 M62.5234375 -19.5 C62.5234375 -5.346403033908198, 62.5234375 8.807193932183605, 62.5234375 19.5 M62.5234375 -19.5 C62.5234375 -10.531550697879105, 62.5234375 -1.5631013957582098, 62.5234375 19.5 M62.5234375 19.5 C14.908360879839115 19.5, -32.70671574032177 19.5, -62.5234375 19.5 M62.5234375 19.5 C27.525958897811115 19.5, -7.471519704377769 19.5, -62.5234375 19.5 M-62.5234375 19.5 C-62.5234375 5.265235100083531, -62.5234375 -8.969529799832937, -62.5234375 -19.5 M-62.5234375 19.5 C-62.5234375 4.719583657063366, -62.5234375 -10.060832685873269, -62.5234375 -19.5" stroke="hsl(40.5882352941, 60%, 83.3333333333%)" stroke-width="1.3" fill="none" stroke-dasharray="0 0"/></g><g style="" class="row-rect-even"><path d="M-62.5234375 19.5 L62.5234375 19.5 L62.5234375 58.5 L-62.5234375 58.5" stroke="none" stroke-width="0" fill="hsl(40.5882352941, 100%, 98.3333333333%)"/><path d="M-62.5234375 19.5 C-24.94982192839511 19.5, 12.62379364320978 19.5, 62.5234375 19.5 M-62.5234375 19.5 C-26.065286409363445 19.5, 10.39286468127311 19.5, 62.5234375 19.5 M62.5234375 19.5 C62.5234375 35.060018354801514, 62.5234375 50.62003670960303, 62.5234375 58.5 M62.5234375 19.5 C62.5234375 33.668858333884174, 62.5234375 47.83771666776835, 62.5234375 58.5 M62.5234375 58.5 C32.41592390516191 58.5, 2.308410310323822 58.5, -62.5234375 58.5 M62.5234375 58.5 C12.952200589487141 58.5, -36.61903632102572 58.5, -62.5234375 58.5 M-62.5234375 58.5 C-62.5234375 48.452865163796275, -62.5234375 38.40573032759255, -62.5234375 19.5 M-62.5234375 58.5 C-62.5234375 50.610097278388444, -62.5234375 42.72019455677689, -62.5234375 19.5" stroke="hsl(40.5882352941, 60%, 83.3333333333%)" stroke-width="1.3" fill="none" stroke-dasharray="0 0"/></g><g class="label name" transform="translate(-42.0703125, -51)" style=""><foreignObject style="overflow:visible" width="84.140625" height="24"><div xmlns="http://www.w3.org/1999/xhtml" style="display: table-cell; white-space: nowrap; line-height: 1.5; max-width: 187px; text-align: start;"><span class="nodeLabel"><p>CUSTOMER</p></span></div></foreignObject></g><g class="label attribute-type" transform="translate(-52.5234375, -12)" style=""><foreignObject style="overflow:visible" width="42.5625" height="24"><div xmlns="http://www.w3.org/1999/xhtml" style="display: table-cell; white-space: nowrap; line-height: 1.5; max-width: 136px; text-align: start;"><span class="nodeLabel"><p>string</p></span></div></foreignObject></g><g class="label attribute-name" transform="translate(10.0390625, -12)" style=""><foreignObject style="overflow:visible" width="42.484375" height="24"><div xmlns="http://www.w3.org/1999/xhtml" style="display: table-cell; white-space: nowrap; line-height: 1.5; max-width: 135px; text-align: start;"><span class="nodeLabel"><p>name</p></span></div></foreignObject></g><g class="label attribute-keys" transform="translate(72.5234375, -12)" style=""><foreignObject style="overflow:visible" width="0" height="0"><div xmlns="http://www.w3.org/1999/xhtml" style="display: table-cell; white-space: nowrap; line-height: 1.5; max-width: 100px; text-align: start;"><span class="nodeLabel"></span></div></foreignObject></g><g class="label attribute-comment" transform="translate(72.5234375, -12)" style=""><foreignObject style="overflow:visible" width="0" height="0"><div xmlns="http://www.w3.org/1999/xhtml" style="display: table-cell; white-space: nowrap; line-height: 1.5; max-width: 100px; text-align: start;"><span class="nodeLabel"></span></div></foreignObject></g><g class="label attribute-type" transform="translate(-52.5234375, 27)" style=""><foreignObject style="overflow:visible" width="42.5625" height="24"><div xmlns="http://www.w3.org/1999/xhtml" style="display: table-cell; white-space: nowrap; line-height: 1.5; max-width: 136px; text-align: start;"><span class="nodeLabel"><p>string</p></span></div></foreignObject></g><g class="label attribute-name" transform="translate(10.0390625, 27)" style=""><foreignObject style="overflow:visible" width="41.671875" height="24"><div xmlns="http://www.w3.org/1999/xhtml" style="display: table-cell; white-space: nowrap; line-height: 1.5; max-width: 136px; text-align: start;"><span class="nodeLabel"><p>email</p></span></div></foreignObject></g><g class="label attribute-keys" transform="translate(72.5234375, 27)" style=""><foreignObject style="overflow:visible" width="0" height="0"><div xmlns="http://www.w3.org/1999/xhtml" style="display: table-cell; white-space: nowrap; line-height: 1.5; max-width: 100px; text-align: start;"><span class="nodeLabel"></span></div></foreignObject></g><g class="label attribute-comment" transform="translate(72.5234375, 27)" style=""><foreignObject style="overflow:visible" width="0" height="0"><div xmlns="http://www.w3.org/1999/xhtml" style="display: table-cell; white-space: nowrap; line-height: 1.5; max-width: 100px; text-align: start;"><span class="nodeLabel"></span></div></foreignObject></g><g class="divider"><path d="M-62.5234375 -19.50005 L-62.5234375 -19.49995 L62.5234375 -19.49995 L62.5234375 -19.50005" stroke="none" stroke-width="0" fill="#fff4dd" fill-rule="evenodd"/><path d="M-62.5234375 -19.50005 C-62.5234375 -19.500014900898936, -62.5234375 -19.499979801797874, -62.5234375 -19.49995 M-62.5234375 -19.50005 C-62.5234375 -19.500013540971782, -62.5234375 -19.499977081943562, -62.5234375 -19.49995 M-62.5234375 -19.49995 C-16.120039953766934 -19.49995, 30.283357592466132 -19.49995, 62.5234375 -19.49995 M-62.5234375 -19.49995 C-25.894255030477986 -19.49995, 10.734927439044029 -19.49995, 62.5234375 -19.49995 M62.5234375 -19.49995 C62.5234375 -19.499988087493826, 62.5234375 -19.50002617498765, 62.5234375 -19.50005 M62.5234375 -19.49995 C62.5234375 -19.499981044169154, 62.5234375 -19.50001208833831, 62.5234375 -19.50005 M62.5234375 -19.50005 C25.37022824873356 -19.50005, -11.782981002532878 -19.50005, -62.5234375 -19.50005 M62.5234375 -19.50005 C14.75356958487383 -19.50005, -33.01629833025234 -19.50005, -62.5234375 -19.50005" stroke="hsl(40.5882352941, 60%, 83.3333333333%)" stroke-width="1.3" fill="none" stroke-dasharray="0 0"/></g><g class="divider"><path d="M0.0390125 -19.5 L0.0391125 -19.5 L0.0391125 58.5 L0.0390125 58.5" stroke="none" stroke-width="0" fill="#fff4dd" fill-rule="evenodd"/><path d="M0.0390125 -19.5 C0.03905122580916314 -19.5, 0.03908995161832628 -19.5, 0.0391125 -19.5 M0.0390125 -19.5 C0.03904444253446015 -19.5, 0.03907638506892029 -19.5, 0.0391125 -19.5 M0.0391125 -19.5 C0.0391125 3.150257724327613, 0.0391125 25.800515448655226, 0.0391125 58.5 M0.0391125 -19.5 C0.0391125 4.459399323710883, 0.0391125 28.418798647421767, 0.0391125 58.5 M0.0391125 58.5 C0.03908827399628911 58.5, 0.03906404799257822 58.5, 0.0390125 58.5 M0.0391125 58.5 C0.03909046535661171 58.5, 0.03906843071322342 58.5, 0.0390125 58.5 M0.0390125 58.5 C0.0390125 36.786924212576665, 0.0390125 15.073848425153322, 0.0390125 -19.5 M0.0390125 58.5 C0.0390125 27.63099821938844, 0.0390125 -3.238003561223117, 0.0390125 -19.5" stroke="hsl(40.5882352941, 60%, 83.3333333333%)" stroke-width="1.3" fill="none" stroke-dasharray="0 0"/></g><g class="divider"><path d="M-62.5234375 -19.50005 L-62.5234375 -19.49995 L62.5234375 -19.49995 L62.5234375 -19.50005" stroke="none" stroke-width="0" fill="#fff4dd" fill-rule="evenodd"/><path d="M-62.5234375 -19.50005 C-62.5234375 -19.500025029150528, -62.5234375 -19.500000058301055, -62.5234375 -19.49995 M-62.5234375 -19.50005 C-62.5234375 -19.500028891833548, -62.5234375 -19.50000778366709, -62.5234375 -19.49995 M-62.5234375 -19.49995 C-32.658029655449425 -19.49995, -2.792621810898858 -19.49995, 62.5234375 -19.49995 M-62.5234375 -19.49995 C-29.53775176360095 -19.49995, 3.447933972798097 -19.49995, 62.5234375 -19.49995 M62.5234375 -19.49995 C62.5234375 -19.499970477312292, 62.5234375 -19.499990954624586, 62.5234375 -19.50005 M62.5234375 -19.49995 C62.5234375 -19.49998417563223, 62.5234375 -19.500018351264455, 62.5234375 -19.50005 M62.5234375 -19.50005 C20.369059587077402 -19.50005, -21.785318325845196 -19.50005, -62.5234375 -19.50005 M62.5234375 -19.50005 C22.360745973555815 -19.50005, -17.80194555288837 -19.50005, -62.5234375 -19.50005" stroke="hsl(40.5882352941, 60%, 83.3333333333%)" stroke-width="1.3" fill="none" stroke-dasharray="0 0"/></g></g><g class="node default" id="mermaid-0fa41c39-0006-47a8-b8e8-93c36a66fec8-entity-ORDER-1" data-look="classic" transform="translate(70.5234375, 268)"><rect class="basic label-container" style="" x="-50" y="-42" width="100" height="84"/><g class="label" style="" transform="translate(-26.3125, -12)"><rect/><foreignObject style="overflow:visible" width="52.625" height="24"><div xmlns="http://www.w3.org/1999/xhtml" style="display: table-cell; white-space: nowrap; line-height: 1.5; max-width: 100px; text-align: center;"><span class="nodeLabel markdown-node-label"><p>ORDER</p></span></div></foreignObject></g></g><g class="node default" id="mermaid-0fa41c39-0006-47a8-b8e8-93c36a66fec8-entity-LINE-ITEM-2" data-look="classic" transform="translate(70.5234375, 453)"><rect class="basic label-container" style="" x="-58.28125" y="-42" width="116.5625" height="84"/><g class="label" style="" transform="translate(-38.28125, -12)"><rect/><foreignObject style="overflow:visible" width="76.5625" height="24"><div xmlns="http://www.w3.org/1999/xhtml" style="display: table-cell; white-space: nowrap; line-height: 1.5; max-width: 200px; text-align: center;"><span class="nodeLabel markdown-node-label"><p>LINE-ITEM</p></span></div></foreignObject></g></g></g></g></g><defs><filter id="mermaid-0fa41c39-0006-47a8-b8e8-93c36a66fec8-drop-shadow" height="130%" width="130%"><feDropShadow dx="4" dy="4" stdDeviation="0" flood-opacity="0.06" flood-color="#000000"/></filter></defs><defs><filter id="mermaid-0fa41c39-0006-47a8-b8e8-93c36a66fec8-drop-shadow-small" height="150%" width="150%"><feDropShadow dx="2" dy="2" stdDeviation="0" flood-opacity="0.06" flood-color="#000000"/></filter></defs><linearGradient id="mermaid-0fa41c39-0006-47a8-b8e8-93c36a66fec8-gradient" gradientUnits="objectBoundingBox" x1="0%" y1="0%" x2="100%" y2="0%"><stop offset="0%" stop-color="hsl(40.5882352941, 60%, 83.3333333333%)" stop-opacity="1"/><stop offset="100%" stop-color="hsl(-79.4117647059, 60%, 83.3333333333%)" stop-opacity="1"/></linearGradient></svg>